<mxfile><diagram id="_Dffz_C9CUIzMSpkQ1kt" name="Page-1"><mxGraphModel dx="1676" dy="896" grid="0" gridSize="10" guides="1" tooltips="1" connect="1" arrows="1" fold="1" page="1" pageScale="1" pageWidth="1100" pageHeight="850" math="0" shadow="0"><root><mxCell id="0"/><mxCell id="1" parent="0"/><mxCell id="2" value="&lt;b&gt;&lt;u&gt;&lt;font style=&quot;font-size: 18px&quot;&gt;Set-up:&lt;/font&gt;&lt;/u&gt;&lt;/b&gt;" style="text;html=1;strokeColor=none;fillColor=none;align=left;verticalAlign=left;whiteSpace=wrap;rounded=0;fontSize=15;" parent="1" vertex="1"><mxGeometry x="20" y="70" width="210" height="50" as="geometry"/></mxCell><mxCell id="3" value="&lt;h1 style=&quot;font-size: 25px;&quot;&gt;&lt;b style=&quot;font-size: 25px;&quot;&gt;&lt;font style=&quot;font-size: 25px;&quot;&gt;Drinking Bluff Dice - A Game of Deception&lt;/font&gt;&lt;/b&gt;&lt;/h1&gt;" style="text;html=1;strokeColor=none;fillColor=none;align=left;verticalAlign=middle;whiteSpace=wrap;rounded=0;fontSize=25;" parent="1" vertex="1"><mxGeometry x="12" y="5" width="566" height="60" as="geometry"/></mxCell><mxCell id="6" value="&lt;font style=&quot;font-size: 18px&quot;&gt;Both player roll 1 dice , higher face-value = first player&lt;/font&gt;" style="rounded=1;whiteSpace=wrap;html=1;fontSize=15;fillColor=none;gradientColor=none;align=left;verticalAlign=left;" parent="1" vertex="1"><mxGeometry x="20" y="130" width="210" height="110" as="geometry"/></mxCell><mxCell id="7" value="" style="endArrow=classic;html=1;fontSize=15;" parent="1" edge="1"><mxGeometry width="50" height="50" relative="1" as="geometry"><mxPoint x="230" y="189.29" as="sourcePoint"/><mxPoint x="310" y="189.29" as="targetPoint"/></mxGeometry></mxCell><mxCell id="8" value="&lt;font style=&quot;font-size: 18px&quot;&gt;Player 1 rolls 5 dices, looks at his hand &lt;br&gt;&lt;br&gt;&amp;lt;Alert: Remember your hand&amp;gt;. &lt;br&gt;&lt;br&gt;Click button to conceal in dice_cup_1&lt;/font&gt;" style="rounded=1;whiteSpace=wrap;html=1;fontSize=15;fillColor=none;gradientColor=none;align=left;verticalAlign=left;" parent="1" vertex="1"><mxGeometry x="330" y="130" width="320" height="120" as="geometry"/></mxCell><mxCell id="11" value="" style="endArrow=classic;html=1;fontSize=15;" parent="1" edge="1"><mxGeometry width="50" height="50" relative="1" as="geometry"><mxPoint x="649.9999999999998" y="184.29" as="sourcePoint"/><mxPoint x="759.9999999999998" y="184.29" as="targetPoint"/></mxGeometry></mxCell><mxCell id="12" value="&lt;font style=&quot;font-size: 18px&quot;&gt;&lt;u&gt;&lt;b&gt;Game Play:&lt;/b&gt;&lt;/u&gt;&lt;/font&gt;" style="text;html=1;strokeColor=none;fillColor=none;align=left;verticalAlign=left;whiteSpace=wrap;rounded=0;fontSize=15;" parent="1" vertex="1"><mxGeometry x="10" y="250" width="210" height="50" as="geometry"/></mxCell><mxCell id="13" value="&lt;font style=&quot;font-size: 18px&quot;&gt;First player begins bid: &lt;br&gt;call a quantity and face-value of dice, that he believes are under ALL cups.&lt;br&gt;&lt;br&gt;Ones are wild-cards, becomes whichever face currently called&lt;br&gt;&lt;br&gt;(Eg. 5-Fours, =&amp;nbsp; quantity 5 of face value 4)&lt;/font&gt;" style="rounded=1;whiteSpace=wrap;html=1;fontSize=15;fillColor=none;gradientColor=none;align=left;verticalAlign=left;" parent="1" vertex="1"><mxGeometry x="20" y="310" width="341" height="223" as="geometry"/></mxCell><mxCell id="14" value="&lt;font style=&quot;font-size: 18px&quot;&gt;Player 2 rolls 5 dices, looks at his hand &lt;br&gt;&lt;br&gt;&amp;lt;Alert: Remember your hand&amp;gt;. &lt;br&gt;&lt;br&gt;Click button to conceal in dice_cup_2&lt;/font&gt;" style="rounded=1;whiteSpace=wrap;html=1;fontSize=15;fillColor=none;gradientColor=none;align=left;verticalAlign=left;" parent="1" vertex="1"><mxGeometry x="760" y="130" width="320" height="120" as="geometry"/></mxCell><mxCell id="15" value="" style="endArrow=classic;html=1;fontSize=15;" parent="1" edge="1"><mxGeometry width="50" height="50" relative="1" as="geometry"><mxPoint x="309.9999999999998" y="410" as="sourcePoint"/><mxPoint x="389.9999999999998" y="410" as="targetPoint"/></mxGeometry></mxCell><mxCell id="19" value="&lt;font style=&quot;font-size: 18px&quot;&gt;&lt;span&gt;Next player has two choices:&lt;/span&gt;&lt;br&gt;&lt;span&gt;(i)&amp;nbsp; bid; or&lt;/span&gt;&lt;br&gt;&lt;span&gt;(ii) call bluff&lt;/span&gt;&lt;/font&gt;" style="rhombus;whiteSpace=wrap;html=1;rounded=0;fontSize=15;fillColor=none;gradientColor=none;align=center;verticalAlign=left;" parent="1" vertex="1"><mxGeometry x="390" y="290" width="250" height="240" as="geometry"/></mxCell><mxCell id="21" value="" style="endArrow=classic;html=1;fontSize=15;exitX=0.5;exitY=1;exitDx=0;exitDy=0;entryX=0.456;entryY=0;entryDx=0;entryDy=0;entryPerimeter=0;" parent="1" source="19" target="22" edge="1"><mxGeometry width="50" height="50" relative="1" as="geometry"><mxPoint x="460" y="480" as="sourcePoint"/><mxPoint x="700" y="600" as="targetPoint"/></mxGeometry></mxCell><mxCell id="22" value="&lt;font style=&quot;font-size: 18px&quot;&gt;All dices are revealed&lt;/font&gt;" style="rounded=1;whiteSpace=wrap;html=1;fontSize=15;fillColor=none;gradientColor=none;align=center;verticalAlign=middle;" parent="1" vertex="1"><mxGeometry x="350" y="570" width="360" height="60" as="geometry"/></mxCell><mxCell id="23" value="&lt;font style=&quot;font-size: 18px&quot;&gt;BID&lt;/font&gt;" style="text;html=1;strokeColor=none;fillColor=none;align=center;verticalAlign=middle;whiteSpace=wrap;rounded=0;fontSize=15;" parent="1" vertex="1"><mxGeometry x="630" y="390" width="80" height="20" as="geometry"/></mxCell><mxCell id="24" value="" style="endArrow=classic;html=1;fontSize=15;" parent="1" edge="1"><mxGeometry width="50" height="50" relative="1" as="geometry"><mxPoint x="639.9999999999998" y="409.29" as="sourcePoint"/><mxPoint x="720" y="409.29" as="targetPoint"/></mxGeometry></mxCell><mxCell id="25" value="&lt;font style=&quot;font-size: 18px&quot;&gt;&lt;b&gt;BID: &lt;/b&gt;call out &lt;br&gt;&lt;br&gt;&lt;span style=&quot;white-space: pre&quot;&gt;&#9;&lt;/span&gt;&lt;u&gt;higher &lt;/u&gt;quantity of the &lt;u&gt;same face-value&lt;/u&gt;&lt;br&gt;&lt;span style=&quot;white-space: pre&quot;&gt;&#9;&lt;span style=&quot;white-space: pre&quot;&gt;&#9;&lt;/span&gt;&lt;span style=&quot;white-space: pre&quot;&gt;&#9;&lt;/span&gt;&lt;span style=&quot;white-space: pre&quot;&gt;&#9;&lt;/span&gt;&lt;/span&gt;or &lt;br&gt;&lt;span style=&quot;white-space: pre&quot;&gt;&#9;&lt;/span&gt;&lt;u&gt;same &lt;/u&gt;quantity of a &lt;u&gt;higher face-value&lt;/u&gt;&lt;/font&gt;" style="rounded=1;whiteSpace=wrap;html=1;fontSize=15;fillColor=none;gradientColor=none;align=left;verticalAlign=left;" parent="1" vertex="1"><mxGeometry x="720" y="305" width="360" height="240" as="geometry"/></mxCell><mxCell id="27" value="&lt;font style=&quot;font-size: 18px&quot;&gt;Call Bluff&lt;/font&gt;" style="text;html=1;align=center;verticalAlign=middle;resizable=0;points=[];autosize=1;strokeColor=none;fontSize=15;" parent="1" vertex="1"><mxGeometry x="429" y="544" width="82" height="23" as="geometry"/></mxCell><mxCell id="31" value="&lt;font style=&quot;font-size: 18px&quot;&gt;&lt;span style=&quot;white-space: pre&quot;&gt;&#9;&lt;/span&gt;&lt;span style=&quot;white-space: pre&quot;&gt;&#9;&lt;/span&gt;&lt;span style=&quot;white-space: pre&quot;&gt;&#9;&lt;/span&gt;&lt;br&gt;&lt;b&gt;&lt;br&gt;&lt;span style=&quot;white-space: pre&quot;&gt;&#9;&lt;/span&gt;&lt;span style=&quot;white-space: pre&quot;&gt;&#9;&lt;/span&gt;&lt;u&gt;Winning condition:&amp;nbsp;&lt;/u&gt;&lt;br&gt;&lt;/b&gt;&lt;br&gt;&lt;span style=&quot;white-space: pre&quot;&gt;&#9;&lt;/span&gt;if&amp;nbsp;&lt;span style=&quot;white-space: pre&quot;&gt;&#9;&lt;/span&gt;current bid &amp;gt; count under all cups;&lt;br&gt;&lt;span style=&quot;white-space: pre&quot;&gt;&#9;&lt;span style=&quot;white-space: pre&quot;&gt;&#9;&lt;/span&gt;&lt;/span&gt;player call bluff WIN&lt;br&gt;&lt;span style=&quot;white-space: pre&quot;&gt;&#9;&lt;span style=&quot;white-space: pre&quot;&gt;&#9;&lt;/span&gt;&lt;/span&gt;(bidder is caught bluffing)&lt;br&gt;&lt;br&gt;&lt;span style=&quot;white-space: pre&quot;&gt;&#9;&lt;/span&gt;else, bidder wins&lt;br&gt;&lt;span style=&quot;white-space: pre&quot;&gt;&#9;&lt;/span&gt;&amp;nbsp;&lt;br&gt;&lt;span style=&quot;white-space: pre&quot;&gt;&#9;&lt;/span&gt;&lt;/font&gt;" style="rounded=1;whiteSpace=wrap;html=1;fontSize=15;fillColor=none;gradientColor=none;align=left;verticalAlign=middle;" parent="1" vertex="1"><mxGeometry x="350" y="660" width="380" height="150" as="geometry"/></mxCell><mxCell id="36" value="" style="edgeStyle=segmentEdgeStyle;endArrow=classic;html=1;fontSize=15;" parent="1" target="19" edge="1"><mxGeometry width="50" height="50" relative="1" as="geometry"><mxPoint x="720" y="340" as="sourcePoint"/><mxPoint x="770" y="290" as="targetPoint"/></mxGeometry></mxCell><mxCell id="37" value="" style="endArrow=classic;html=1;fontSize=15;exitX=0.475;exitY=1.019;exitDx=0;exitDy=0;exitPerimeter=0;" parent="1" edge="1"><mxGeometry width="50" height="50" relative="1" as="geometry"><mxPoint x="516" y="631.1400000000001" as="sourcePoint"/><mxPoint x="516" y="660" as="targetPoint"/></mxGeometry></mxCell></root></mxGraphModel></diagram><diagram name="Copy of Page-1" id="2em9SAJrJHGuzmBKfrO6"><mxGraphModel dx="1173" dy="627" grid="0" gridSize="10" guides="1" tooltips="1" connect="1" arrows="1" fold="1" page="1" pageScale="1" pageWidth="1100" pageHeight="850" math="0" shadow="0"><root><mxCell id="yM83lAftyDoReBXkEBUq-0"/><mxCell id="yM83lAftyDoReBXkEBUq-1" parent="yM83lAftyDoReBXkEBUq-0"/><mxCell id="yM83lAftyDoReBXkEBUq-2" value="&lt;b&gt;&lt;u&gt;&lt;font style=&quot;font-size: 18px&quot;&gt;Set-up:&lt;/font&gt;&lt;/u&gt;&lt;/b&gt;" style="text;html=1;strokeColor=none;fillColor=none;align=left;verticalAlign=left;whiteSpace=wrap;rounded=0;fontSize=15;" parent="yM83lAftyDoReBXkEBUq-1" vertex="1"><mxGeometry x="20" y="70" width="210" height="50" as="geometry"/></mxCell><mxCell id="yM83lAftyDoReBXkEBUq-3" value="&lt;h1 style=&quot;font-size: 25px;&quot;&gt;&lt;b style=&quot;font-size: 25px;&quot;&gt;&lt;font style=&quot;font-size: 25px;&quot;&gt;Drinking Bluff Dice - A Game of Deception&lt;/font&gt;&lt;/b&gt;&lt;/h1&gt;" style="text;html=1;strokeColor=none;fillColor=none;align=left;verticalAlign=middle;whiteSpace=wrap;rounded=0;fontSize=25;" parent="yM83lAftyDoReBXkEBUq-1" vertex="1"><mxGeometry x="12" y="5" width="566" height="60" as="geometry"/></mxCell><mxCell id="yM83lAftyDoReBXkEBUq-4" value="&lt;font style=&quot;font-size: 18px&quot;&gt;Both player roll 1 dice , higher face-value = first player&lt;/font&gt;" style="rounded=1;whiteSpace=wrap;html=1;fontSize=15;fillColor=none;gradientColor=none;align=left;verticalAlign=left;" parent="yM83lAftyDoReBXkEBUq-1" vertex="1"><mxGeometry x="20" y="130" width="210" height="110" as="geometry"/></mxCell><mxCell id="yM83lAftyDoReBXkEBUq-5" value="" style="endArrow=classic;html=1;fontSize=15;" parent="yM83lAftyDoReBXkEBUq-1" edge="1"><mxGeometry width="50" height="50" relative="1" as="geometry"><mxPoint x="230" y="189.29" as="sourcePoint"/><mxPoint x="310" y="189.29" as="targetPoint"/></mxGeometry></mxCell><mxCell id="yM83lAftyDoReBXkEBUq-6" value="&lt;font style=&quot;font-size: 18px&quot;&gt;Player 1 rolls 5 dices, looks at his hand &lt;br&gt;&lt;br&gt;&amp;lt;Alert: Remember your hand&amp;gt;. &lt;br&gt;&lt;br&gt;Click button to conceal in dice_cup_1&lt;/font&gt;" style="rounded=1;whiteSpace=wrap;html=1;fontSize=15;fillColor=none;gradientColor=none;align=left;verticalAlign=left;" parent="yM83lAftyDoReBXkEBUq-1" vertex="1"><mxGeometry x="330" y="130" width="320" height="120" as="geometry"/></mxCell><mxCell id="yM83lAftyDoReBXkEBUq-7" value="" style="endArrow=classic;html=1;fontSize=15;" parent="yM83lAftyDoReBXkEBUq-1" edge="1"><mxGeometry width="50" height="50" relative="1" as="geometry"><mxPoint x="649.9999999999998" y="184.29" as="sourcePoint"/><mxPoint x="759.9999999999998" y="184.29" as="targetPoint"/></mxGeometry></mxCell><mxCell id="yM83lAftyDoReBXkEBUq-8" value="&lt;font style=&quot;font-size: 18px&quot;&gt;&lt;u&gt;&lt;b&gt;Game Play:&lt;/b&gt;&lt;/u&gt;&lt;/font&gt;" style="text;html=1;strokeColor=none;fillColor=none;align=left;verticalAlign=left;whiteSpace=wrap;rounded=0;fontSize=15;" parent="yM83lAftyDoReBXkEBUq-1" vertex="1"><mxGeometry x="10" y="250" width="210" height="50" as="geometry"/></mxCell><mxCell id="yM83lAftyDoReBXkEBUq-9" value="&lt;font style=&quot;font-size: 18px&quot;&gt;First player begins bid: &lt;br&gt;call a quantity and face-value of dice, that he believes are under ALL cups.&lt;br&gt;&lt;br&gt;Ones are wild-cards, becomes whichever face currently called&lt;br&gt;&lt;br&gt;(Eg. 5-Fours, =&amp;nbsp; quantity 5 of face value 4)&lt;/font&gt;" style="rounded=1;whiteSpace=wrap;html=1;fontSize=15;fillColor=none;gradientColor=none;align=left;verticalAlign=left;" parent="yM83lAftyDoReBXkEBUq-1" vertex="1"><mxGeometry x="20" y="310" width="341" height="223" as="geometry"/></mxCell><mxCell id="yM83lAftyDoReBXkEBUq-10" value="&lt;font style=&quot;font-size: 18px&quot;&gt;Player 2 rolls 5 dices, looks at his hand &lt;br&gt;&lt;br&gt;&amp;lt;Alert: Remember your hand&amp;gt;. &lt;br&gt;&lt;br&gt;Click button to conceal in dice_cup_2&lt;/font&gt;" style="rounded=1;whiteSpace=wrap;html=1;fontSize=15;fillColor=none;gradientColor=none;align=left;verticalAlign=left;" parent="yM83lAftyDoReBXkEBUq-1" vertex="1"><mxGeometry x="760" y="130" width="320" height="120" as="geometry"/></mxCell><mxCell id="yM83lAftyDoReBXkEBUq-11" value="" style="endArrow=classic;html=1;fontSize=15;" parent="yM83lAftyDoReBXkEBUq-1" edge="1"><mxGeometry width="50" height="50" relative="1" as="geometry"><mxPoint x="309.9999999999998" y="410" as="sourcePoint"/><mxPoint x="389.9999999999998" y="410" as="targetPoint"/></mxGeometry></mxCell><mxCell id="yM83lAftyDoReBXkEBUq-12" value="&lt;font style=&quot;font-size: 18px&quot;&gt;&lt;span&gt;Next player has two choices:&lt;/span&gt;&lt;br&gt;&lt;span&gt;(i)&amp;nbsp; bid; or&lt;/span&gt;&lt;br&gt;&lt;span&gt;(ii) call bluff&lt;/span&gt;&lt;/font&gt;" style="rhombus;whiteSpace=wrap;html=1;rounded=0;fontSize=15;fillColor=none;gradientColor=none;align=center;verticalAlign=left;" parent="yM83lAftyDoReBXkEBUq-1" vertex="1"><mxGeometry x="390" y="290" width="250" height="240" as="geometry"/></mxCell><mxCell id="yM83lAftyDoReBXkEBUq-13" value="" style="endArrow=classic;html=1;fontSize=15;exitX=0.5;exitY=1;exitDx=0;exitDy=0;entryX=0.456;entryY=0;entryDx=0;entryDy=0;entryPerimeter=0;" parent="yM83lAftyDoReBXkEBUq-1" source="yM83lAftyDoReBXkEBUq-12" target="yM83lAftyDoReBXkEBUq-14" edge="1"><mxGeometry width="50" height="50" relative="1" as="geometry"><mxPoint x="460" y="480" as="sourcePoint"/><mxPoint x="700" y="600" as="targetPoint"/></mxGeometry></mxCell><mxCell id="yM83lAftyDoReBXkEBUq-14" value="&lt;font style=&quot;font-size: 18px&quot;&gt;All dices are revealed&lt;/font&gt;" style="rounded=1;whiteSpace=wrap;html=1;fontSize=15;fillColor=none;gradientColor=none;align=center;verticalAlign=middle;" parent="yM83lAftyDoReBXkEBUq-1" vertex="1"><mxGeometry x="350" y="570" width="360" height="60" as="geometry"/></mxCell><mxCell id="yM83lAftyDoReBXkEBUq-15" value="&lt;font style=&quot;font-size: 18px&quot;&gt;BID&lt;/font&gt;" style="text;html=1;strokeColor=none;fillColor=none;align=center;verticalAlign=middle;whiteSpace=wrap;rounded=0;fontSize=15;" parent="yM83lAftyDoReBXkEBUq-1" vertex="1"><mxGeometry x="630" y="390" width="80" height="20" as="geometry"/></mxCell><mxCell id="yM83lAftyDoReBXkEBUq-16" value="" style="endArrow=classic;html=1;fontSize=15;" parent="yM83lAftyDoReBXkEBUq-1" edge="1"><mxGeometry width="50" height="50" relative="1" as="geometry"><mxPoint x="639.9999999999998" y="409.29" as="sourcePoint"/><mxPoint x="720" y="409.29" as="targetPoint"/></mxGeometry></mxCell><mxCell id="yM83lAftyDoReBXkEBUq-17" value="&lt;font style=&quot;font-size: 18px&quot;&gt;&lt;b&gt;BID: &lt;/b&gt;call out &lt;br&gt;&lt;br&gt;&lt;span style=&quot;white-space: pre&quot;&gt;&#9;&lt;/span&gt;&lt;u&gt;higher &lt;/u&gt;quantity of the &lt;u&gt;same face-value&lt;/u&gt;&lt;br&gt;&lt;span style=&quot;white-space: pre&quot;&gt;&#9;&lt;span style=&quot;white-space: pre&quot;&gt;&#9;&lt;/span&gt;&lt;span style=&quot;white-space: pre&quot;&gt;&#9;&lt;/span&gt;&lt;span style=&quot;white-space: pre&quot;&gt;&#9;&lt;/span&gt;&lt;/span&gt;or &lt;br&gt;&lt;span style=&quot;white-space: pre&quot;&gt;&#9;&lt;/span&gt;&lt;u&gt;same &lt;/u&gt;quantity of a &lt;u&gt;higher face-value&lt;/u&gt;&lt;/font&gt;" style="rounded=1;whiteSpace=wrap;html=1;fontSize=15;fillColor=none;gradientColor=none;align=left;verticalAlign=left;" parent="yM83lAftyDoReBXkEBUq-1" vertex="1"><mxGeometry x="720" y="305" width="360" height="240" as="geometry"/></mxCell><mxCell id="yM83lAftyDoReBXkEBUq-18" value="&lt;font style=&quot;font-size: 18px&quot;&gt;Call Bluff&lt;/font&gt;" style="text;html=1;align=center;verticalAlign=middle;resizable=0;points=[];autosize=1;strokeColor=none;fontSize=15;" parent="yM83lAftyDoReBXkEBUq-1" vertex="1"><mxGeometry x="429" y="544" width="82" height="23" as="geometry"/></mxCell><mxCell id="yM83lAftyDoReBXkEBUq-19" value="&lt;font style=&quot;font-size: 18px&quot;&gt;&lt;span style=&quot;white-space: pre&quot;&gt;&#9;&lt;/span&gt;&lt;span style=&quot;white-space: pre&quot;&gt;&#9;&lt;/span&gt;&lt;span style=&quot;white-space: pre&quot;&gt;&#9;&lt;/span&gt;&lt;br&gt;&lt;b&gt;&lt;br&gt;&lt;span style=&quot;white-space: pre&quot;&gt;&#9;&lt;/span&gt;&lt;span style=&quot;white-space: pre&quot;&gt;&#9;&lt;/span&gt;&lt;u&gt;Winning condition:&amp;nbsp;&lt;/u&gt;&lt;br&gt;&lt;/b&gt;&lt;br&gt;&lt;span style=&quot;white-space: pre&quot;&gt;&#9;&lt;/span&gt;if&amp;nbsp;&lt;span style=&quot;white-space: pre&quot;&gt;&#9;&lt;/span&gt;current bid &amp;gt; count under all cups;&lt;br&gt;&lt;span style=&quot;white-space: pre&quot;&gt;&#9;&lt;span style=&quot;white-space: pre&quot;&gt;&#9;&lt;/span&gt;&lt;/span&gt;player call bluff WIN&lt;br&gt;&lt;span style=&quot;white-space: pre&quot;&gt;&#9;&lt;span style=&quot;white-space: pre&quot;&gt;&#9;&lt;/span&gt;&lt;/span&gt;(bidder is caught bluffing)&lt;br&gt;&lt;br&gt;&lt;span style=&quot;white-space: pre&quot;&gt;&#9;&lt;/span&gt;else, bidder wins&lt;br&gt;&lt;span style=&quot;white-space: pre&quot;&gt;&#9;&lt;/span&gt;&amp;nbsp;&lt;br&gt;&lt;span style=&quot;white-space: pre&quot;&gt;&#9;&lt;/span&gt;&lt;/font&gt;" style="rounded=1;whiteSpace=wrap;html=1;fontSize=15;fillColor=none;gradientColor=none;align=left;verticalAlign=middle;" parent="yM83lAftyDoReBXkEBUq-1" vertex="1"><mxGeometry x="350" y="660" width="380" height="150" as="geometry"/></mxCell><mxCell id="yM83lAftyDoReBXkEBUq-20" value="" style="edgeStyle=segmentEdgeStyle;endArrow=classic;html=1;fontSize=15;" parent="yM83lAftyDoReBXkEBUq-1" target="yM83lAftyDoReBXkEBUq-12" edge="1"><mxGeometry width="50" height="50" relative="1" as="geometry"><mxPoint x="720" y="340" as="sourcePoint"/><mxPoint x="770" y="290" as="targetPoint"/></mxGeometry></mxCell><mxCell id="yM83lAftyDoReBXkEBUq-21" value="" style="endArrow=classic;html=1;fontSize=15;exitX=0.475;exitY=1.019;exitDx=0;exitDy=0;exitPerimeter=0;" parent="yM83lAftyDoReBXkEBUq-1" edge="1"><mxGeometry width="50" height="50" relative="1" as="geometry"><mxPoint x="516" y="631.1400000000001" as="sourcePoint"/><mxPoint x="516" y="660" as="targetPoint"/></mxGeometry></mxCell></root></mxGraphModel></diagram></mxfile>